<svg xmlns="http://www.w3.org/2000/svg" xmlns:xlink="http://www.w3.org/1999/xlink" viewBox="0 0 175.9114 265.7453"><defs><style>.cls-1{fill:url(#Gradiente_sem_nome_23);}.cls-2{fill:#0a0d27;}</style><linearGradient id="Gradiente_sem_nome_23" x1="87.296" y1="296.3727" x2="87.296" y2="-9.6273" gradientUnits="userSpaceOnUse"><stop offset="0" stop-color="#f231a5"/><stop offset="0" stop-color="#f336a0"/><stop offset="0.2469" stop-color="#f84f85"/><stop offset="0.5047" stop-color="#fc6270"/><stop offset="0.7582" stop-color="#fe6e63"/><stop offset="1" stop-color="#ff725f"/></linearGradient></defs><title>Ativo 3</title><g id="Camada_2" data-name="Camada 2"><g id="Camada_1-2" data-name="Camada 1"><path class="cls-1" d="M52.6248,57.5731c.2882,2.8192.1273,5.6614.41,8.4837.6064,6.0612,3.2146,11.4416,6.2771,16.6219,5.8828,9.9507,12.9323,18.5591,12.4614,30.7317a4.89,4.89,0,0,1-3.6311,4.6813c.0183.1661.0326.335.0366.5107a91.0472,91.0472,0,0,1,.2012,9.3844c-.2182,2.7-1.0055,4.9487-.0078,7.5633.8711,2.2827,1.92,4.3253,2.0734,6.8079a46.1829,46.1829,0,0,0,.7139,7.6695c.5222,2.3466.4542,4.8449,1.3087,7.1048.93,2.459,2.04,4.6286,2.7481,7.1917,1.6739,6.0584,5.07,11.6657,8.2553,17.0543a4.9659,4.9659,0,0,1,.7192,2.2822,4.69,4.69,0,0,1,.8258,1.8031,1.6785,1.6785,0,0,1,.07.2949.8062.8062,0,0,0,.1744.1475,15.1107,15.1107,0,0,1,1.4588,1.303c.948.7974,1.9818,1.5159,2.8552,2.3987a23.31,23.31,0,0,1,2.6473,3.5373c.18.2695.6616.853.7342,1.0257a.7713.7713,0,0,0,.1148.1917l.0394.0106a5.4663,5.4663,0,0,1,3.6293,2.24c2.4208,2.4486,1.74,7.4947-2.0318,8.4868a5.101,5.101,0,0,1-1.9752.3768,4.8645,4.8645,0,0,1-2.5807-.6846,4.5564,4.5564,0,0,1-3.41,1.2837c-1.8888-.0317-3.789-.1617-5.6934-.3148a4.5565,4.5565,0,0,1-3.8918,1.9124,4.8091,4.8091,0,0,1-2.7881-.8174,5.5481,5.5481,0,0,1-1.6051.2183,11.8721,11.8721,0,0,1-1.7456-.1568,47.6486,47.6486,0,0,1-7.8912-1.1374,30.9083,30.9083,0,0,1-8.69.3184,74.5211,74.5211,0,0,1-19.4561-5.6091,108.5905,108.5905,0,0,1-19.4615-11.28c-4.9373-3.5084-8.7212-8.3277-13.4117-12.0509A20.9755,20.9755,0,0,1,.202,181.6619a5.7868,5.7868,0,0,1,.081.6424c.1211,1.8234,1.3894,3.4956,1.8183,5.2607a27.4242,27.4242,0,0,1,.4532,4.9236,45.3886,45.3886,0,0,0,1.7325,11.154c2.1942,7.0809,6.5374,14.114,10.2642,20.5041,3.6529,6.2634,7.83,12.34,13.559,16.8824,4.991,3.9575,10.5855,9.0228,16.5457,11.312,6.4424,2.4743,12.88,5.406,19.4843,7.372,6.3085,1.8779,13.33,5.4138,19.91,4.3139,6.8614-1.1469,13.7039-.5326,20.6329-1.5758,3.6083-.5433,7.8646-.21,11.2049-1.6766a64.0137,64.0137,0,0,0,10.2658-5.7063,4.7253,4.7253,0,0,1,2.1242-.8722,4.9346,4.9346,0,0,1,2.1966-.41c3.98.1166,9.4425-7.0378,11.9345-9.6287,3.6879-3.8344,7.8591-7.2111,11.4885-11.0728a39.2992,39.2992,0,0,0,8.0091-12.6736c1.3939-3.7546,2.7888-6.9649,5.9412-9.3842.6755-3.5671,2.5313-6.8523,3.1979-10.5026.9409-5.152,2.47-10.2876,3.0471-15.49,1.1953-10.78-1.5872-21.9214-1.8687-32.801a4.5847,4.5847,0,0,1-1.0353-1.3522,5.4987,5.4987,0,0,1-.6049-1.1957c-2.3114-6.4115-4.3243-13.488-9.0981-18.5617a4.869,4.869,0,0,1-1.3674-2.87c-.0181-.0123-.0363-.0243-.0544-.0371a4.5705,4.5705,0,0,1-2.6317-3.0085,51.16,51.16,0,0,0-3.9343-5.0678c-1.8826-1.9817-4.3658-3.2587-6.3436-5.145-2.7463-2.6192-5.1178-7.1819-8.8352-8.58-.0858.0037-.1682.0126-.2564.0126a4.6451,4.6451,0,0,1-3.3791-1.3058,3.7563,3.7563,0,0,1-1.3465-2.6193,5.1419,5.1419,0,0,1,2.2448-5.4526,4.4289,4.4289,0,0,1,2.3632-2.2658,5.042,5.042,0,0,1,.5676-1.1376c.8814-6.3941,4.6663-11.467,6.8919-17.428,1.37-3.67,2.7271-7.57,2.9235-11.5177.187-3.7591-.0635-6.45,1.792-9.9289a4.8713,4.8713,0,0,1,1.5184-1.7511c.0737-9.0979.5391-17.9728-1.5994-26.9168A78.0539,78.0539,0,0,0,139.2541,1.696c-3.952.8545-6.5926,3.3611-9.6663,5.881-2.2436,1.8393-4.756,3.3349-6.5949,5.607-3.9289,4.8544-6.4852,10.0015-12.7557,12.1908a4.9449,4.9449,0,0,1-1.9731.2892,5.4893,5.4893,0,0,1-1.1533.0891c-2.7783-.07-5.6306-.9119-8.3918-.7867-2.8691.13-5.2269,1.2017-8.114.2087a4.8633,4.8633,0,0,1-3.2349-3.361c-.0564-.0416-.1138-.0772-.17-.1215-4.3773-3.4692-7.5959-8.1089-12.001-11.535A81.5547,81.5547,0,0,0,62.6733,2.2515a5.5037,5.5037,0,0,1-.752,1.0694c-2.5115,2.7976-3.4927,6.41-5.0092,9.7715a79.3819,79.3819,0,0,0-3.9132,9.5588C50.7655,30.01,50.61,37.492,50.6055,45.1156c0,.1943-.0251.3719-.0429.5546a5,5,0,0,1,.8417,2.64C51.5418,51.4431,52.3068,54.4613,52.6248,57.5731Z"/><path class="cls-2" d="M98.0774,201.9445c-1.0676-1.2545-1.7077-2.0769-2.4191-2.8322a102.7829,102.7829,0,0,1-26.1558-49.6,104.2964,104.2964,0,0,1-.2034-42.4894c.1534-.7843.3445-1.5613.5163-2.342a3.38,3.38,0,0,0-.6347-3.0112c-.5833-.7275-1.1185-1.4941-1.6631-2.2519A91.1841,91.1841,0,0,1,50.833,57.4928,92.0267,92.0267,0,0,1,59.57,4.2107c.175-.3594.3637-.7122.5483-1.0669C62.0517-.5726,62.26-.6618,65.8491,1.1559A67.2781,67.2781,0,0,1,89.5285,21.0438c.6405.8528,1.2374,1.7386,1.8842,2.5865a2.6749,2.6749,0,0,0,2.4452,1.0811c2.79-.1907,5.5806-.5265,8.37-.5191,2.6514.0071,5.3019.3756,7.8709.5787,1.5071-.7554,2.0926-2.1716,2.9488-3.3267a67.3743,67.3743,0,0,1,23.54-20.0553c3.9613-2.0413,4.1184-1.9987,6.0583,1.8278A91.04,91.04,0,0,1,152.24,36.4254c2.0924,22.99-3.6571,43.85-16.838,62.7289-.6042.8654-1.1566,1.767-1.6924,2.5892.5661,1.5423,1.9427,1.9611,3.0121,2.6793a87.7526,87.7526,0,0,1,25.7548,26.4654,85.6136,85.6136,0,0,1,12.978,37.85c2.4316,25.6712-4.85,48.2873-21.87,67.5867a84.2491,84.2491,0,0,1-50.7544,28.1722A87.8667,87.8667,0,0,1,1.5927,194.923,90.4876,90.4876,0,0,1,.0093,176.6337a8.0556,8.0556,0,0,1,.1093-1.9894c.16-.582.4841-1.3669.9414-1.55a2.2761,2.2761,0,0,1,1.7764.4348A10.6033,10.6033,0,0,1,4.4732,175.27a90.4251,90.4251,0,0,0,90.44,27.7722C95.7968,202.8173,96.6432,202.4473,98.0774,201.9445Zm-62.4355-.3438-.57.6552c.8113,1.0233,1.5642,2.1,2.4425,3.0621,21.1461,23.162,47.3071,33.4048,78.5471,30.15,17.0132-1.7725,32.1075-8.3959,45.5612-18.9109a15.6685,15.6685,0,0,0,5.1348-6.9269,85.306,85.306,0,0,0-1.7339-67.6273c-.4818-1.0406-.7014-2.332-2.34-3.0632a96.6243,96.6243,0,0,1-13.1051,28.9408,93.4462,93.4462,0,0,1-22.3757,23.2165,92.2765,92.2765,0,0,1-28.5457,14.0892,94.743,94.743,0,0,1-63.0148-3.5855Zm65.7122-95.2692c.6623-.9543,1.2453-1.6554,1.6789-2.4393a101.7217,101.7217,0,0,1,42.2077-41.4454c.7911-.42,1.4979-.9985,2.4524-1.6442-.5529-1.4854-.995-2.8645-1.5691-4.1863-9.1368-21.0363-31.63-32.6125-52.8506-28.65-18.0251,3.3659-30.5662,13.75-37.5081,30.7771a11.3061,11.3061,0,0,0-.4331,2.2046c3.9434,2.3715,7.8052,4.4832,11.4355,6.9373a105.1925,105.1925,0,0,1,10.1735,7.7487,106.7151,106.7151,0,0,1,9.385,9.264A105.7751,105.7751,0,0,1,94.231,94.9515C96.7343,98.539,98.8937,102.3665,101.3541,106.3315ZM3.6419,179.7883C1.6407,187.6191,6.8353,207.5589,14.4064,220.3c11.92,20.059,29.0807,33.5366,51.6593,39.51,22.3855,5.9223,43.88,3.0884,64.1018-8.3491,12.4843-7.0612,27.2983-21.7888,29.2558-28.8734-.126-.0172-.2879-.0938-.3725-.0427-1.1344.686-2.2561,1.3929-3.3845,2.0888-24.9558,15.3909-51.4968,18.7679-79.401,9.9322-19.1439-6.0618-34.5144-17.6015-46.3843-33.7941a13.48,13.48,0,0,0-4.1394-4.2226,90.17,90.17,0,0,1-20.19-15.5825C5.0262,180.4308,4.5854,179.679,3.6419,179.7883Zm119.3065-66.2234c-1.0231.8181-2.0615,1.6085-3.0563,2.4506a106.4018,106.4018,0,0,1-15.4529,10.6654,5.5131,5.5131,0,0,1-6.2794-.0742,96.8577,96.8577,0,0,1-13.252-8.935c-3.1629-2.653-6.1162-5.5551-9.1812-8.326-.5384-.4867-.9737-1.3722-1.9614-.78-1.0035,9.96,3.5956,30.5082,14.9879,46.3765,8.95,12.4665,24.7206,25.4219,34.1991,27.8071,3.8684-5.4974,8.3086-22.5924,7.8361-36.687C130.3861,134.066,126.9565,119.1336,122.9484,113.5649Zm24.07-47.7294c-1.7454-.3-2.752.7154-3.8325,1.3437a98.124,98.124,0,0,0-38.2678,39.8715c-.5587,1.062-1.0825,2.1425-1.6148,3.2182-.4224.8538-.8612,1.735-1.9964,1.6688-1.1114-.0648-1.4778-1.0037-1.8937-1.84-.2967-.5971-.5823-1.2-.8825-1.795A98.5726,98.5726,0,0,0,78.9671,81.6585,96.7882,96.7882,0,0,0,58.46,66.4437c-.732-.4053-1.4671-1.2943-2.4987-.5676.4279,7.2054,6.4749,21.13,13.632,31.1373a89.9718,89.9718,0,0,0,31.6625,27.6416A83.3819,83.3819,0,0,0,121.8583,110.02a87.7306,87.7306,0,0,0,19.6482-27.5049A64.9048,64.9048,0,0,0,147.0189,65.8355Zm-21.1926,44.78c.6394,1.6391,1.159,2.9975,1.6979,4.3481a88.6,88.6,0,0,1,4.7112,50.1787,88.0665,88.0665,0,0,1-6.83,20.8057c-.353.7621-1.1733,1.4983-.2976,2.6408.6812-.4522,1.363-.8425,1.976-1.3211a90.4406,90.4406,0,0,0,32.8975-50.5723,6.5043,6.5043,0,0,0-.9892-5.6292A86.0093,86.0093,0,0,0,133.54,106.0523c-.6554-.4174-1.371-.74-1.9188-1.0325-.47.1907-.78.2245-.9436.3968C129.123,107.0535,127.5936,108.7139,125.8263,110.6158Zm-4.5216,75.9735c-.2247-.3647-.2665-.5238-.3667-.5813-1.1473-.6588-2.2883-1.3313-3.46-1.9453a87.3223,87.3223,0,0,1-31.5137-27.6852,85.9432,85.9432,0,0,1-13.7776-31.6491,9.9778,9.9778,0,0,0-1.5-4.15c-.1471,1.5312-.2832,2.4356-.3136,3.3436a99.4054,99.4054,0,0,0,29.5581,75.103,25.285,25.285,0,0,0,2.1427,1.7262,113.7812,113.7812,0,0,0,12.2223-5.2259C118.3566,193.6608,119.83,190.1145,121.3047,186.5893ZM139.8213,5.41c-.3037.2313-.7022.3991-.8913.6988a41.1312,41.1312,0,0,0-6.3144,26.6465,4.671,4.671,0,0,0,1.8691,3.3383,51.463,51.463,0,0,1,12.9779,16.012,13.3157,13.3157,0,0,0,1.2245,1.6286C151.73,44.317,147.7027,16.7624,139.8213,5.41ZM53.9653,53.5369c.3237-.2652.7222-.4419.8818-.7447A57.6312,57.6312,0,0,1,66.66,37.3436a5.4307,5.4307,0,0,0,1.438-2.7429A41.4286,41.4286,0,0,0,64.3436,6.7194a13.8925,13.8925,0,0,0-1.1278-1.6127C56.2356,13.4044,50.8314,41.8859,53.9653,53.5369Zm34.4093-28.211C85.7046,20.2006,79.5189,13.7231,72.76,8.897c-2.3673-1.69-2.3673-1.69-4.58-2.0173.3635,1.0733.74,2.0394,1.0179,3.033.75,2.6792,1.519,5.3555,2.17,8.06.9753,4.053.706,8.1825.6059,12.2983-.0178.7344-.3019,1.5822.7371,2.1911,2.4988-1.2632,5.0908-2.5508,7.6616-3.8793C82.9331,27.2588,85.878,26.8279,88.3746,25.3259Zm46.0508-18.303-.6435-.4951c-1.5338,1.0191-3.1075,1.9838-4.59,3.0724-1.495,1.0976-2.9364,2.2761-4.333,3.4974-1.2966,1.1339-2.5467,2.3291-3.7373,3.5739a55.5894,55.5894,0,0,0-3.6819,4.1766c-1.0943,1.4017-2.531,2.6427-2.8757,4.428.4093.3571.5782.6151.8058.6865a73.626,73.626,0,0,1,12.4279,5.2685c.2823.15.7127.02,1.0058.02.5142-4.21.9109-8.2845,1.5333-12.3244C130.9809,14.7449,132.8841,10.9344,134.4254,7.0229Z"/></g></g></svg>