<svg xmlns="http://www.w3.org/2000/svg" xmlns:xlink="http://www.w3.org/1999/xlink" viewBox="0 0 315.5621 161.3211"><defs><style>.cls-1{fill:#0a0d27;}.cls-2{fill:url(#Gradiente_sem_nome_23);}</style><linearGradient id="Gradiente_sem_nome_23" x1="261.768" y1="179.9134" x2="261.768" y2="-5.8443" gradientUnits="userSpaceOnUse"><stop offset="0" stop-color="#f231a5"/><stop offset="0" stop-color="#f336a0"/><stop offset="0.2469" stop-color="#f84f85"/><stop offset="0.5047" stop-color="#fc6270"/><stop offset="0.7582" stop-color="#fe6e63"/><stop offset="1" stop-color="#ff725f"/></linearGradient></defs><title>logo</title><g id="Camada_2" data-name="Camada 2"><g id="Camada_1-2" data-name="Camada 1"><path class="cls-1" d="M38.9521,55.6639A5.1625,5.1625,0,0,1,42.4082,56.96a.064.064,0,0,1,.0718.0718,5.14,5.14,0,0,1,1.8721,3.9605v.0718a5.2542,5.2542,0,0,1-1.2959,3.5278L18.36,93.68q-2.8807,3.3845-3.3843,5.2558a7.0964,7.0964,0,0,0-.2158,1.728,7.0989,7.0989,0,0,0,2.4477,5.4H5.3281a5.1613,5.1613,0,0,1-3.456-1.2959A5.2555,5.2555,0,0,1,0,101.0238v-.36a5.2577,5.2577,0,0,1,1.2959-3.5283l.0723-.1435,24.624-28.9444q2.8784-3.383,3.3838-5.4716a7.7118,7.7118,0,0,0,.144-1.5122,6.8447,6.8447,0,0,0-.72-3.0962,6.95,6.95,0,0,0-1.728-2.3038h11.88Zm-16.1279,0A4.9865,4.9865,0,0,1,26.28,57.1757a5.2913,5.2913,0,0,1,1.584,3.8882A5.543,5.543,0,0,1,27,64.0878a5,5,0,0,1-4.3921,2.376H5.4a5.2856,5.2856,0,0,1-3.6719-1.44A5.1481,5.1481,0,0,1,0,61.0639a5.322,5.322,0,0,1,1.6562-3.8882A5.0842,5.0842,0,0,1,5.4,55.6639H22.8242Zm16.1279,39.6A4.99,4.99,0,0,1,42.4082,96.56a5.2712,5.2712,0,0,1,1.9439,4.0318v.144a5.3846,5.3846,0,0,1-1.8,3.96,5.1831,5.1831,0,0,1-3.6,1.3682H21.5283a4.8733,4.8733,0,0,1-4.4643-2.8082,5.0294,5.0294,0,0,1-.72-2.5918A5.2558,5.2558,0,0,1,17.64,97.1356,4.977,4.977,0,0,1,21.6,95.264Z"/><path class="cls-1" d="M59.5435,77.264a5.2531,5.2531,0,0,1,1.1523,2.376,5.0507,5.0507,0,0,1,.144,1.2237,7.346,7.346,0,0,1-.144,1.44,5.4868,5.4868,0,0,1-5.2563,3.96,5.1213,5.1213,0,0,1-4.2476-2.0161,4.9375,4.9375,0,0,1-.936-1.8,5.22,5.22,0,0,1-.2163-1.5117,6.267,6.267,0,0,1,.2163-1.6562A4.8228,4.8228,0,0,1,51.48,77.1918a5.1485,5.1485,0,0,1,3.96-1.728A5.3567,5.3567,0,0,1,59.5435,77.264ZM59.4,61.3158a24.2214,24.2214,0,0,1,15.7676-5.6519A25.2671,25.2671,0,0,1,96.9478,93.5a25.0523,25.0523,0,0,1-21.78,12.564A25.0995,25.0995,0,0,1,50.6157,86.0477a6.4689,6.4689,0,0,0,1.8721,1.2959A7.8636,7.8636,0,0,0,55.44,87.92a7.4241,7.4241,0,0,0,3.8881-1.08,7.5838,7.5838,0,0,0,2.0162-2.0879A14.33,14.33,0,0,0,75.1675,95.264,13.7618,13.7618,0,0,0,85.32,91.0516a14.516,14.516,0,0,0,0-20.3759,14.2409,14.2409,0,0,0-18.792-1.26,14.1911,14.1911,0,0,0-5.1123,7.56,7.2916,7.2916,0,0,0-2.8076-2.4483,6.7482,6.7482,0,0,0-3.1684-.792,6.5812,6.5812,0,0,0-2.52.5039A7.1893,7.1893,0,0,0,50.6157,75.68,24.7764,24.7764,0,0,1,59.4,61.3158Z"/><path class="cls-1" d="M115.5591,77.264a5.252,5.252,0,0,1,1.1523,2.376,5.0506,5.0506,0,0,1,.1441,1.2237,7.3462,7.3462,0,0,1-.1441,1.44,5.4868,5.4868,0,0,1-5.2563,3.96,5.1213,5.1213,0,0,1-4.2476-2.0161,4.9375,4.9375,0,0,1-.936-1.8,5.22,5.22,0,0,1-.2163-1.5117,6.267,6.267,0,0,1,.2163-1.6562,4.8228,4.8228,0,0,1,1.2236-2.0879,5.1485,5.1485,0,0,1,3.96-1.728A5.3567,5.3567,0,0,1,115.5591,77.264Zm-.1436-15.9482a24.2214,24.2214,0,0,1,15.7676-5.6519,25.2671,25.2671,0,0,1,21.78,37.836,25.0523,25.0523,0,0,1-21.78,12.564,25.1,25.1,0,0,1-24.5518-20.0162,6.4689,6.4689,0,0,0,1.8721,1.2959,7.864,7.864,0,0,0,2.9517.5762,7.4244,7.4244,0,0,0,3.8882-1.08,7.5835,7.5835,0,0,0,2.0161-2.0879A14.33,14.33,0,0,0,131.1831,95.264a13.7618,13.7618,0,0,0,10.1523-4.2124,14.516,14.516,0,0,0,0-20.3759,14.2407,14.2407,0,0,0-18.7919-1.26,14.19,14.19,0,0,0-5.1123,7.56,7.2926,7.2926,0,0,0-2.8077-2.4483,6.7482,6.7482,0,0,0-3.1684-.792,6.58,6.58,0,0,0-2.52.5039,7.1886,7.1886,0,0,0-2.3038,1.4405A24.7764,24.7764,0,0,1,115.4155,61.3158Z"/><path class="cls-1" d="M167.5435,55.6639a5.0592,5.0592,0,0,1,3.96,1.8,5.19,5.19,0,0,1,1.3682,3.6V88.5678a4.9856,4.9856,0,0,1-1.9444,3.8881,5.3344,5.3344,0,0,1-3.456,1.2242,5.05,5.05,0,0,1-4.1758-2.0162,4.96,4.96,0,0,1-1.2241-3.312v-27.36a5.16,5.16,0,0,1,1.2959-3.4561,5.0512,5.0512,0,0,1,4.0322-1.8721Zm-3.3121,38.88a7.4323,7.4323,0,0,0,3.24.72h33.624A4.896,4.896,0,0,1,204.48,96.56a5.2708,5.2708,0,0,1,1.9438,4.0318v.144a5.0579,5.0579,0,0,1-1.8,3.96,5.1833,5.1833,0,0,1-3.6,1.3682H167.4712a5.44,5.44,0,0,1-3.8877-1.584,5.3254,5.3254,0,0,1-1.5122-3.816V92.8158A7.4422,7.4422,0,0,0,164.2314,94.5438Z"/><path class="cls-1" d="M239.04,57.2479a5.2057,5.2057,0,0,1,1.584,3.816,5.3678,5.3678,0,0,1-.36,1.9438,9.0565,9.0565,0,0,1-1.44,2.0884L224.64,81.9437q-.216.2886-.6118.72a6.03,6.03,0,0,0-.54.648q-.7932.9368-1.2964,1.5117a6.8865,6.8865,0,0,1-1.5117,1.0083,5.2193,5.2193,0,0,1-2.232.5039,5.0909,5.0909,0,0,1-3.5283-1.3681,11.438,11.438,0,0,1-1.2236-1.2959l-15.624-18.5039a11.5927,11.5927,0,0,1-1.44-2.0879,5.9278,5.9278,0,0,1-.36-2.0161,5.4081,5.4081,0,0,1,5.4-5.4,5.2881,5.2881,0,0,1,2.8081.792,8.4937,8.4937,0,0,1,2.0879,2.0879l11.88,14.04,11.88-14.1118a8.4527,8.4527,0,0,1,2.0879-2.0884,5.7,5.7,0,0,1,2.8081-.72A5.2059,5.2059,0,0,1,239.04,57.2479Zm-20.664,30.816a8.5,8.5,0,0,0,5.4721-2.5918v15.1918a5.2918,5.2918,0,0,1-1.44,3.6719,5.3971,5.3971,0,0,1-7.8481.0723,5.0859,5.0859,0,0,1-1.5122-3.7442V85.4721A8.18,8.18,0,0,0,218.376,88.0639Z"/><path class="cls-2" d="M240.7208,34.95c.175,1.7114.0773,3.4368.2487,5.15a24.78,24.78,0,0,0,3.81,10.09c3.5711,6.0406,7.8505,11.2663,7.5647,18.6557a2.9683,2.9683,0,0,1-2.2043,2.8418c.0111.1009.02.2034.0222.31a55.2765,55.2765,0,0,1,.1222,5.6969c-.1325,1.6388-.61,3.0041-.0048,4.5913a13.8413,13.8413,0,0,1,1.2587,4.1327,28.0357,28.0357,0,0,0,.4333,4.6558,30.8878,30.8878,0,0,0,.7945,4.3129c.5644,1.4928,1.2384,2.81,1.6683,4.3658,1.0161,3.6777,3.0777,7.0817,5.0113,10.3528a3.0135,3.0135,0,0,1,.4366,1.3855,2.8447,2.8447,0,0,1,.5013,1.0945,1.0141,1.0141,0,0,1,.0427.179.49.49,0,0,0,.1059.09,9.1684,9.1684,0,0,1,.8856.791c.5754.484,1.203.92,1.7332,1.4561a14.1433,14.1433,0,0,1,1.607,2.1473c.11.1637.4017.5179.4457.6227a.472.472,0,0,0,.07.1164l.024.0064a3.318,3.318,0,0,1,2.2031,1.36c1.47,1.4864,1.0561,4.55-1.2334,5.1519a3.0967,3.0967,0,0,1-1.199.2288,2.9533,2.9533,0,0,1-1.5666-.4156,2.7667,2.7667,0,0,1-2.07.7793c-1.1467-.0193-2.3-.0982-3.4562-.1912a2.766,2.766,0,0,1-2.3625,1.1609,2.92,2.92,0,0,1-1.6926-.4961,3.369,3.369,0,0,1-.9744.1325,7.2233,7.2233,0,0,1-1.06-.0952,28.92,28.92,0,0,1-4.79-.6905,18.76,18.76,0,0,1-5.2754.1933,45.2378,45.2378,0,0,1-11.8109-3.405,65.9194,65.9194,0,0,1-11.8141-6.8473c-2.9972-2.13-5.2943-5.0554-8.1416-7.3155a12.7389,12.7389,0,0,1-1.1566,2.7338,3.5134,3.5134,0,0,1,.0491.39c.0736,1.1069.8435,2.122,1.1038,3.1935a16.65,16.65,0,0,1,.2752,2.9889,27.5471,27.5471,0,0,0,1.0517,6.771c1.332,4.2985,3.9685,8.5679,6.2309,12.4471a35.4968,35.4968,0,0,0,8.231,10.2484c3.03,2.4025,6.4259,5.4774,10.0441,6.867,3.9108,1.502,7.8187,3.2817,11.8279,4.4752,3.83,1.14,8.092,3.2865,12.0866,2.6187,4.1652-.6962,8.3189-.3233,12.5252-.9566,2.19-.33,4.7742-.1276,6.8019-1.0177a38.855,38.855,0,0,0,6.2319-3.4641,2.8686,2.8686,0,0,1,1.2895-.5294,2.9958,2.9958,0,0,1,1.3334-.2486c2.4158.0708,5.7321-4.2723,7.2449-5.8451,2.2388-2.3277,4.7709-4.3776,6.9741-6.7218a23.8553,23.8553,0,0,0,4.8619-7.6935c.8462-2.2792,1.693-4.228,3.6066-5.6967.41-2.1654,1.5367-4.16,1.9414-6.3756.5711-3.1276,1.4995-6.2451,1.85-9.4033.7256-6.5443-.9636-13.3073-1.1344-19.9118a2.7837,2.7837,0,0,1-.6285-.8209,3.3393,3.3393,0,0,1-.3672-.7258c-1.4032-3.8922-2.625-8.1879-5.523-11.2679a2.956,2.956,0,0,1-.83-1.7421l-.033-.0225a2.7745,2.7745,0,0,1-1.5976-1.8263,31.0481,31.0481,0,0,0-2.3883-3.0764c-1.1428-1.203-2.65-1.9783-3.8509-3.1233-1.6671-1.59-3.1068-4.36-5.3635-5.2083-.052.0022-.102.0076-.1556.0076a2.8193,2.8193,0,0,1-2.0512-.7927,2.28,2.28,0,0,1-.8174-1.59,3.1213,3.1213,0,0,1,1.3627-3.31,2.6886,2.6886,0,0,1,1.4345-1.3755,3.0658,3.0658,0,0,1,.3446-.6906c.535-3.8815,2.8327-6.961,4.1838-10.58a23.8241,23.8241,0,0,0,1.7746-6.9919c.1136-2.282-.0385-3.9153,1.0879-6.0273a2.956,2.956,0,0,1,.9217-1.063c.0448-5.5229.3273-10.91-.9709-16.34A47.3809,47.3809,0,0,0,293.3092,1.03c-2.3991.5188-4.002,2.04-5.8679,3.57a25.69,25.69,0,0,0-4.0034,3.4037c-2.3851,2.947-3.9369,6.0715-7.7434,7.4005a3.0026,3.0026,0,0,1-1.1978.1756,3.3394,3.3394,0,0,1-.7.0541c-1.6866-.0424-3.4181-.5536-5.0943-.4776-1.7416.079-3.173.7295-4.9256.1267a2.9522,2.9522,0,0,1-1.9637-2.04c-.0343-.0253-.0691-.0469-.103-.0738-2.6573-2.106-4.6111-4.9225-7.2853-7.0023a49.4992,49.4992,0,0,0-7.6039-4.7994,3.35,3.35,0,0,1-.4565.6492c-1.5247,1.6983-2.12,3.8913-3.0409,5.9318a48.19,48.19,0,0,0-2.3755,5.8027c-1.3558,4.467-1.45,9.0091-1.4529,13.637,0,.118-.0153.2258-.0261.3366a3.0352,3.0352,0,0,1,.511,1.6029C240.0634,31.2286,240.5277,33.0608,240.7208,34.95Z"/><path class="cls-1" d="M268.3129,122.5907c-.6481-.7616-1.0367-1.2608-1.4685-1.7193a62.3946,62.3946,0,0,1-15.878-30.1095,63.3131,63.3131,0,0,1-.1234-25.7933c.0931-.4761.2091-.9477.3134-1.4217a2.0516,2.0516,0,0,0-.3853-1.8279c-.3541-.4417-.679-.907-1.01-1.3671a55.3525,55.3525,0,0,1-10.1284-25.4508,55.8649,55.8649,0,0,1,5.3035-32.345c.1063-.2182.2209-.4323.3329-.6476,1.1739-2.2561,1.3-2.31,3.4791-1.2068a40.8393,40.8393,0,0,1,14.3746,12.073c.3889.5177.7512,1.0554,1.1438,1.57a1.6239,1.6239,0,0,0,1.4844.6563c1.6936-.1158,3.3877-.32,5.0811-.3151,1.61.0043,3.2186.228,4.7781.3513.9149-.4586,1.27-1.3183,1.79-2.02A40.898,40.898,0,0,1,291.6905.8432c2.4047-1.2392,2.5-1.2133,3.6776,1.11a55.2643,55.2643,0,0,1,5.8245,20.1593,55.7684,55.7684,0,0,1-10.2215,38.08c-.3668.5253-.7022,1.0726-1.0274,1.5717.3436.9363,1.1793,1.1905,1.8285,1.6265a53.2722,53.2722,0,0,1,15.6345,16.0658,51.971,51.971,0,0,1,7.8782,22.977c1.4762,15.5838-2.9442,29.3128-13.2759,41.0286a51.1441,51.1441,0,0,1-30.81,17.102,53.34,53.34,0,0,1-61.4568-42.2351,54.9267,54.9267,0,0,1-.9612-11.1026,4.894,4.894,0,0,1,.0663-1.2076c.0971-.3533.2939-.83.5715-.9412a1.3822,1.3822,0,0,1,1.0784.264,6.434,6.434,0,0,1,.9936,1.0573,54.8929,54.8929,0,0,0,54.9019,16.8591C266.9284,123.1205,267.4422,122.8959,268.3129,122.5907Zm-37.9016-.2087-.3462.3977c.4925.6212.95,1.2748,1.4827,1.8589,12.8367,14.06,28.7178,20.2784,47.6821,18.3026a53.2415,53.2415,0,0,0,27.658-11.48,9.5131,9.5131,0,0,0,3.1171-4.205,51.7854,51.7854,0,0,0-1.0526-41.0533c-.2925-.6317-.4258-1.4156-1.4205-1.8595a58.6587,58.6587,0,0,1-7.9554,17.5686,56.7287,56.7287,0,0,1-13.5832,14.0936,56.0162,56.0162,0,0,1-17.3288,8.5529,57.514,57.514,0,0,1-38.2532-2.1766ZM270.302,64.5486c.402-.5792.7559-1.0049,1.0191-1.4807a61.7506,61.7506,0,0,1,25.6223-25.1595c.48-.2548.9093-.6061,1.4887-.9981-.3356-.9017-.604-1.7389-.9525-2.5413a29.5177,29.5177,0,0,0-32.083-17.3919C254.4544,19.02,246.8413,25.3239,242.6272,35.66a6.8675,6.8675,0,0,0-.2629,1.3383c2.3939,1.44,4.7382,2.7215,6.942,4.2113a63.8358,63.8358,0,0,1,6.1758,4.7039A62.8335,62.8335,0,0,1,265.9779,57.64C267.4975,59.8182,268.8084,62.1417,270.302,64.5486Zm-59.3163,44.5921c-1.2149,4.7537,1.9386,16.8582,6.5346,24.5927,7.2357,12.1769,17.6535,20.3585,31.36,23.9847a50.3264,50.3264,0,0,0,38.9131-5.0684c7.5786-4.2865,16.5715-13.2269,17.76-17.5276-.0765-.01-.1748-.057-.2261-.0259-.6887.4164-1.37.8455-2.0546,1.268-15.1495,9.3431-31.2612,11.3931-48.2,6.0293a54.8581,54.8581,0,0,1-28.1577-20.5147,8.1818,8.1818,0,0,0-2.5128-2.5633,54.742,54.742,0,0,1-12.2564-9.4594C211.826,109.5308,211.5584,109.0744,210.9857,109.1407ZM283.4108,68.94c-.621.4966-1.2514.9765-1.8553,1.4877a64.5927,64.5927,0,0,1-9.3807,6.4744,3.3466,3.3466,0,0,1-3.8119-.045,58.7983,58.7983,0,0,1-8.0447-5.424c-1.92-1.6105-3.7128-3.3723-5.5734-5.0544-.3268-.2954-.5911-.833-1.1907-.4734-.6092,6.0462,2.1827,18.52,9.0984,28.1529,5.4332,7.5678,15.0067,15.4323,20.7606,16.88,2.3484-3.3372,5.0438-13.7147,4.7569-22.2709C287.9259,81.385,285.844,72.32,283.4108,68.94Zm14.6121-28.9742a3.1611,3.1611,0,0,0-2.3266.8157,59.567,59.567,0,0,0-23.2305,24.2041c-.3391.6447-.6571,1.3006-.98,1.9536-.2565.5183-.5228,1.0532-1.212,1.013-.6746-.0393-.897-.6093-1.1495-1.1172-.18-.3625-.3535-.7283-.5358-1.09a59.8371,59.8371,0,0,0-11.8764-16.1741,58.757,58.757,0,0,0-12.4486-9.2362c-.4443-.246-.8906-.7857-1.5168-.3445.26,4.374,3.9306,12.8271,8.2753,18.9019a54.6171,54.6171,0,0,0,19.2208,16.78,50.62,50.62,0,0,0,12.5065-8.8844,53.258,53.258,0,0,0,11.9275-16.6969A39.4017,39.4017,0,0,0,298.0229,39.9655ZM285.1579,67.15c.3881.995.7035,1.82,1.0307,2.6395a53.9766,53.9766,0,0,1-1.2862,43.0912c-.2144.4626-.7123.9095-.1807,1.6031.4135-.2746.8274-.5115,1.2-.802a54.9021,54.9021,0,0,0,19.9705-30.7,3.9484,3.9484,0,0,0-.6005-3.4172A52.2108,52.2108,0,0,0,289.84,64.3792c-.3979-.2534-.8323-.4494-1.1648-.6268-.2855.1158-.4735.1363-.5728.2409C287.1592,64.987,286.2307,65.9949,285.1579,67.15Zm-2.7449,46.12c-.1364-.2214-.1617-.318-.2226-.3529-.6965-.4-1.3891-.8082-2.1-1.1809a53.01,53.01,0,0,1-19.13-16.8063,52.1725,52.1725,0,0,1-8.3637-19.2127,6.0567,6.0567,0,0,0-.91-2.5193c-.0894.93-.172,1.4785-.19,2.03a60.3442,60.3442,0,0,0,17.9432,45.5914,15.3856,15.3856,0,0,0,1.3008,1.0479,69.0863,69.0863,0,0,0,7.42-3.1724C280.6234,117.5621,281.5178,115.4092,282.413,113.2693Zm11.24-109.985c-.1843.14-.4262.2422-.541.4242a24.9688,24.9688,0,0,0-3.8332,16.1757,2.8358,2.8358,0,0,0,1.1347,2.0266,31.239,31.239,0,0,1,7.8782,9.72,8.0736,8.0736,0,0,0,.7434.9886C300.8826,26.9027,298.4379,10.1757,293.6535,3.2843ZM241.5346,32.5c.1964-.1609.4384-.2682.5352-.452a34.9878,34.9878,0,0,1,7.1711-9.3781,3.2959,3.2959,0,0,0,.873-1.6651A25.15,25.15,0,0,0,247.8347,4.079,8.4466,8.4466,0,0,0,247.15,3.1C242.9127,8.1372,239.6321,25.4269,241.5346,32.5Zm20.8882-17.1255c-1.6209-3.1113-5.3759-7.0435-9.4791-9.9732a4.3676,4.3676,0,0,0-2.78-1.2246c.2207.6516.449,1.2381.6179,1.8412.4554,1.6264.9221,3.2511,1.3171,4.8926a28.6047,28.6047,0,0,1,.3679,7.4657c-.0109.4458-.1833.96.4474,1.33,1.5169-.7668,3.09-1.5484,4.651-2.3549C259.12,16.5475,260.9072,16.2859,262.4228,15.3741ZM290.378,4.2633l-.3907-.3006c-.9311.6186-1.8864,1.2043-2.7865,1.8651-.9075.6663-1.7825,1.3817-2.63,2.1231-.7871.6883-1.546,1.4139-2.2688,2.17a33.7775,33.7775,0,0,0-2.235,2.5354,6.83,6.83,0,0,0-1.7458,2.6881c.2485.2168.3511.3734.4892.4167a44.6989,44.6989,0,0,1,7.5444,3.1983c.1713.0908.4326.0119.6105.0119.3122-2.5556.553-5.0292.9309-7.4815A34.3461,34.3461,0,0,1,290.378,4.2633Z"/></g></g></svg>