<svg xmlns="http://www.w3.org/2000/svg" xmlns:xlink="http://www.w3.org/1999/xlink" viewBox="0 0 198 306"><defs><style>.cls-1{fill:none;}.cls-2{clip-path:url(#clip-path);}.cls-3{fill:url(#Gradiente_sem_nome_23);}</style><clipPath id="clip-path"><path class="cls-1" d="M108.8018,216.1992c-1.0676-1.2546-1.7077-2.077-2.4191-2.8323a102.7824,102.7824,0,0,1-26.1558-49.6,104.2959,104.2959,0,0,1-.2034-42.4893c.1534-.7844.3445-1.5613.5163-2.3421a3.38,3.38,0,0,0-.6347-3.0111c-.5833-.7275-1.1185-1.4942-1.6631-2.252A91.1833,91.1833,0,0,1,61.5574,71.7475,92.027,92.027,0,0,1,70.294,18.4653c.175-.3594.3637-.7121.5483-1.0668,1.9338-3.7164,2.1422-3.8056,5.7312-1.9879a67.2778,67.2778,0,0,1,23.6794,19.8878c.6405.8529,1.2374,1.7387,1.8842,2.5866a2.6749,2.6749,0,0,0,2.4452,1.0811c2.79-.1907,5.5806-.5266,8.37-.5191,2.6514.0071,5.3019.3755,7.8709.5786,1.5071-.7554,2.0926-2.1716,2.9488-3.3266a67.3722,67.3722,0,0,1,23.54-20.0553c3.9613-2.0413,4.1184-1.9988,6.0583,1.8278A91.0415,91.0415,0,0,1,162.9648,50.68c2.0924,22.99-3.6571,43.85-16.838,62.7289-.6042.8654-1.1566,1.7669-1.6924,2.5892.5661,1.5423,1.9427,1.961,3.0121,2.6792a87.7529,87.7529,0,0,1,25.7548,26.4655,85.6132,85.6132,0,0,1,12.978,37.85c2.4316,25.6712-4.85,48.2872-21.87,67.5867a84.25,84.25,0,0,1-50.7544,28.1722A87.8667,87.8667,0,0,1,12.3171,209.1777a90.4886,90.4886,0,0,1-1.5834-18.2894,8.0551,8.0551,0,0,1,.1093-1.9893c.16-.582.4841-1.3669.9414-1.55a2.2765,2.2765,0,0,1,1.7764.4348,10.608,10.608,0,0,1,1.6368,1.7417,90.4253,90.4253,0,0,0,90.44,27.7721C106.5212,217.0719,107.3676,216.7019,108.8018,216.1992Zm-62.4355-.3438-.57.6552c.8113,1.0233,1.5642,2.1,2.4425,3.062,21.1461,23.162,47.3071,33.4049,78.5471,30.15,17.0132-1.7726,32.1075-8.3959,45.5612-18.911a15.6682,15.6682,0,0,0,5.1348-6.9268,85.3062,85.3062,0,0,0-1.7339-67.6274c-.4818-1.0406-.7014-2.3319-2.34-3.0631a96.6226,96.6226,0,0,1-13.1051,28.9407,93.4428,93.4428,0,0,1-22.3757,23.2165,92.2746,92.2746,0,0,1-28.5457,14.0893,94.743,94.743,0,0,1-63.0148-3.5855Zm65.7122-95.2693c.6623-.9542,1.2453-1.6554,1.6789-2.4392a101.7226,101.7226,0,0,1,42.2077-41.4455c.7911-.42,1.4979-.9984,2.4524-1.6441-.5529-1.4854-.995-2.8646-1.5691-4.1864-9.1368-21.0362-31.63-32.6124-52.8506-28.65C85.9727,45.587,73.4316,55.971,66.49,72.9983a11.3066,11.3066,0,0,0-.4331,2.2045C70,77.5743,73.8618,79.6861,77.4921,82.14a105.1925,105.1925,0,0,1,10.1735,7.7487,106.714,106.714,0,0,1,9.385,9.2639,105.8,105.8,0,0,1,7.9048,10.0533C107.4587,112.7937,109.6181,116.6211,112.0785,120.5861ZM14.3663,194.043c-2.0012,7.8308,3.1934,27.7706,10.7645,40.5117,11.92,20.059,29.0807,33.5367,51.6593,39.51,22.3855,5.9223,43.88,3.0883,64.1018-8.3491,12.4843-7.0612,27.2983-21.7888,29.2558-28.8734-.126-.0172-.2879-.0939-.3725-.0427-1.1344.686-2.2561,1.3928-3.3845,2.0887-24.9558,15.391-51.4968,18.768-79.401,9.9323-19.1439-6.0618-34.5144-17.6015-46.3843-33.7941a13.48,13.48,0,0,0-4.1394-4.2226,90.1732,90.1732,0,0,1-20.19-15.5825C15.7506,194.6855,15.31,193.9336,14.3663,194.043ZM133.6728,127.82c-1.0231.818-2.0615,1.6085-3.0563,2.4505a106.3939,106.3939,0,0,1-15.4529,10.6654,5.5131,5.5131,0,0,1-6.2794-.0741,96.8493,96.8493,0,0,1-13.252-8.9351c-3.1629-2.6529-6.1162-5.5551-9.1812-8.326-.5384-.4866-.9737-1.3722-1.9614-.78-1.0035,9.96,3.5956,30.5082,14.9879,46.3764,8.95,12.4666,24.7206,25.4219,34.1991,27.8071,3.8684-5.4974,8.3086-22.5923,7.8361-36.687C141.1105,148.3207,137.6809,133.3883,133.6728,127.82ZM157.7433,80.09c-1.7454-.3-2.752.7153-3.8325,1.3437a98.1234,98.1234,0,0,0-38.2678,39.8715c-.5587,1.062-1.0825,2.1424-1.6148,3.2181-.4224.8538-.8612,1.735-1.9964,1.6689-1.1114-.0648-1.4778-1.0037-1.8937-1.8405-.2967-.597-.5823-1.2-.8825-1.795A98.5757,98.5757,0,0,0,89.6915,95.9131,96.795,96.795,0,0,0,69.1848,80.6983c-.732-.4052-1.4671-1.2943-2.4987-.5675.4279,7.2054,6.4749,21.13,13.632,31.1373A89.9725,89.9725,0,0,0,111.9806,138.91a83.3793,83.3793,0,0,0,20.6021-14.6353,87.7283,87.7283,0,0,0,19.6482-27.5049A64.9028,64.9028,0,0,0,157.7433,80.09Zm-21.1926,44.78c.6394,1.6391,1.159,2.9974,1.6979,4.3481A88.9149,88.9149,0,0,1,136.13,200.203c-.353.7621-1.1733,1.4983-.2976,2.6408.6812-.4523,1.363-.8426,1.976-1.3211A90.4413,90.4413,0,0,0,170.7057,150.95a6.5045,6.5045,0,0,0-.9892-5.6293,86.0106,86.0106,0,0,0-25.4524-25.0142c-.6554-.4173-1.371-.74-1.9188-1.0324-.47.1907-.78.2244-.9436.3968C139.8474,121.3082,138.318,122.9686,136.5507,124.8705Zm-4.5216,75.9735c-.2247-.3647-.2665-.5238-.3667-.5813-1.1473-.6588-2.2883-1.3313-3.46-1.9453a87.3223,87.3223,0,0,1-31.5137-27.6852A85.943,85.943,0,0,1,82.9113,138.983a9.9775,9.9775,0,0,0-1.5-4.15c-.1471,1.5312-.2832,2.4356-.3136,3.3435a99.4051,99.4051,0,0,0,29.5581,75.103,25.3056,25.3056,0,0,0,2.1427,1.7263,113.7812,113.7812,0,0,0,12.2223-5.2259C129.081,207.9155,130.5543,204.3691,132.0291,200.844ZM150.5457,19.6649c-.3037.2313-.7022.399-.8913.6988A41.1309,41.1309,0,0,0,143.34,47.01a4.6709,4.6709,0,0,0,1.8691,3.3383A51.4623,51.4623,0,0,1,158.187,66.3605a13.3078,13.3078,0,0,0,1.2245,1.6285C162.4542,58.5717,158.4271,31.0171,150.5457,19.6649ZM64.69,67.7915c.3237-.2651.7222-.4419.8818-.7446a57.6312,57.6312,0,0,1,11.813-15.4486,5.4307,5.4307,0,0,0,1.438-2.7429A41.4285,41.4285,0,0,0,75.068,20.9741,13.884,13.884,0,0,0,73.94,19.3614C66.96,27.6591,61.5558,56.1406,64.69,67.7915ZM99.099,39.5806c-2.67-5.1254-8.8557-11.6028-15.6149-16.4289-2.3673-1.69-2.3673-1.69-4.58-2.0174.3635,1.0733.74,2.04,1.0179,3.0331.75,2.6791,1.519,5.3555,2.17,8.06.9753,4.0531.706,8.1826.6059,12.2984-.0178.7344-.3019,1.5821.7371,2.191,2.4988-1.2631,5.0908-2.5507,7.6616-3.8793C93.6575,41.5135,96.6024,41.0825,99.099,39.5806ZM145.15,21.2776l-.6435-.4951c-1.5338,1.019-3.1075,1.9837-4.59,3.0724-1.495,1.0976-2.9364,2.2761-4.333,3.4973-1.2966,1.1339-2.5467,2.3292-3.7373,3.5739a55.6289,55.6289,0,0,0-3.6819,4.1766c-1.0943,1.4018-2.531,2.6427-2.8757,4.4281.4093.357.5782.6151.8057.6865a73.627,73.627,0,0,1,12.428,5.2685c.2823.15.7127.02,1.0058.02.5142-4.21.9109-8.2845,1.5333-12.3243C141.7053,29,143.6085,25.1891,145.15,21.2776Z"/></clipPath><linearGradient id="Gradiente_sem_nome_23" x1="99" y1="306" x2="99" gradientUnits="userSpaceOnUse"><stop offset="0" stop-color="#f231a5"/><stop offset="0" stop-color="#f336a0"/><stop offset="0.2469" stop-color="#f84f85"/><stop offset="0.5047" stop-color="#fc6270"/><stop offset="0.7582" stop-color="#fe6e63"/><stop offset="1" stop-color="#ff725f"/></linearGradient></defs><title>logo-onlyfox</title><g id="Camada_2" data-name="Camada 2"><g id="Camada_1-2" data-name="Camada 1"><g class="cls-2"><rect class="cls-3" width="198" height="306"/></g></g></g></svg>